<svg width="65" height="64" viewBox="0 0 65 64" fill="none" xmlns="http://www.w3.org/2000/svg">
<path id="Vector" d="M32.0052 0C23.3125 0 22.2188 0.0364583 18.8073 0.192708C16.1532 0.246653 13.5274 0.750322 11.0417 1.68229C8.90523 2.48105 6.97063 3.73996 5.375 5.36979C3.74663 6.96868 2.48492 8.90212 1.67708 11.0365C0.744751 13.5237 0.242784 16.1515 0.192708 18.8073C0.0416667 22.2188 0 23.3073 0 32C0 40.6927 0.0364583 41.776 0.192708 45.1927C0.246653 47.8468 0.750322 50.4726 1.68229 52.9583C2.48498 55.0928 3.74337 57.0266 5.36979 58.625C6.96729 60.2551 8.90113 61.517 11.0365 62.3229C13.5244 63.2528 16.1518 63.7547 18.8073 63.8073C22.2188 63.9635 23.3073 64 32 64C40.6927 64 41.776 63.9635 45.1927 63.8073C47.8482 63.7547 50.4756 63.2528 52.9635 62.3229C55.0918 61.4974 57.0247 60.2374 58.6389 58.6232C60.253 57.0091 61.513 55.0762 62.3385 52.9479C63.2655 50.4608 63.769 47.8359 63.8281 45.1823C63.9792 41.7708 64.0208 40.6823 64.0208 31.9896C64.0208 23.2969 63.9792 22.2083 63.8281 18.7969C63.769 16.1416 63.2655 13.515 62.3385 11.026C61.5346 8.89096 60.2744 6.95707 58.6458 5.35938C57.0512 3.72835 55.1163 2.46925 52.9792 1.67188C50.4844 0.741153 47.8497 0.240982 45.1875 0.192708C41.7708 0.0364583 40.6875 0 31.9948 0H32.0052ZM29.1302 5.76563H32.0052C40.5469 5.76563 41.5573 5.79688 44.9323 5.95313C46.9615 5.97622 48.9717 6.34795 50.875 7.05208C52.2646 7.56541 53.5212 8.38415 54.5521 9.44792C55.6137 10.4806 56.4321 11.7367 56.9479 13.125C57.652 15.0283 58.0238 17.0385 58.0469 19.0677C58.2031 22.4375 58.2344 23.4531 58.2344 31.9948C58.2344 40.5365 58.2031 41.5469 58.0469 44.9219C58.0243 46.9495 57.6526 48.958 56.9479 50.8594C56.4148 52.2384 55.5991 53.4906 54.5533 54.5356C53.5074 55.5806 52.2545 56.3952 50.875 56.9271C48.973 57.6366 46.9622 58.0102 44.9323 58.0313C41.5625 58.1875 40.5469 58.2188 32.0052 58.2188C23.4635 58.2188 22.4479 58.1875 19.0729 58.0313C17.0434 58.0065 15.0332 57.633 13.1302 56.9271C11.7393 56.416 10.4809 55.599 9.44792 54.5365C8.38604 53.505 7.5691 52.2485 7.05729 50.8594C6.35139 48.9564 5.97789 46.9462 5.95312 44.9167C5.80208 41.5417 5.77083 40.5313 5.77083 31.9844C5.77083 23.4375 5.80208 22.4323 5.95312 19.0573C5.97476 17.0274 6.34836 15.0167 7.05729 13.1146C7.5691 11.7255 8.38604 10.469 9.44792 9.4375C10.4817 8.37473 11.7397 7.55621 13.1302 7.04167C15.0338 6.33795 17.0436 5.96452 19.0729 5.9375C22.026 5.80729 23.1667 5.76563 29.1302 5.76042V5.76563ZM49.0833 11.0781C48.3229 11.0781 47.5795 11.3037 46.9473 11.7263C46.3151 12.1489 45.8224 12.7495 45.5317 13.4521C45.2409 14.1548 45.1651 14.9279 45.3138 15.6737C45.4626 16.4194 45.8292 17.1043 46.3672 17.6417C46.9053 18.179 47.5907 18.5447 48.3367 18.6924C49.0826 18.8401 49.8556 18.7633 50.5579 18.4715C51.2601 18.1798 51.8601 17.6863 52.2818 17.0536C52.7036 16.4208 52.9281 15.6771 52.9271 14.9167C52.9271 14.4121 52.8276 13.9126 52.6344 13.4465C52.4412 12.9805 52.158 12.5571 51.801 12.2006C51.444 11.8441 51.0202 11.5614 50.5539 11.3688C50.0876 11.1762 49.5879 11.0774 49.0833 11.0781ZM32.0052 15.5677C28.7552 15.5677 25.5782 16.5314 22.8759 18.3371C20.1736 20.1427 18.0675 22.709 16.8237 25.7116C15.58 28.7142 15.2546 32.0182 15.8887 35.2058C16.5227 38.3933 18.0877 41.3213 20.3858 43.6194C22.6839 45.9175 25.6119 47.4825 28.7994 48.1166C31.987 48.7506 35.291 48.4252 38.2936 47.1815C41.2962 45.9377 43.8626 43.8316 45.6682 41.1293C47.4738 38.427 48.4375 35.25 48.4375 32C48.4361 27.6423 46.7044 23.4635 43.6231 20.3821C40.5417 17.3008 36.3629 15.5691 32.0052 15.5677ZM32.0052 21.3333C34.1155 21.3302 36.1794 21.9532 37.9355 23.1234C39.6917 24.2936 41.0613 25.9584 41.8711 27.9072C42.6808 29.856 42.8943 32.0012 42.4844 34.0714C42.0746 36.1415 41.06 38.0436 39.5688 39.5369C38.0777 41.0303 36.1771 42.0477 34.1075 42.4606C32.038 42.8734 29.8925 42.6631 27.9425 41.8562C25.9925 41.0493 24.3257 39.6822 23.1529 37.9277C21.9802 36.1732 21.3542 34.1103 21.3542 32C21.3597 29.1773 22.4838 26.4719 24.4802 24.4765C26.4766 22.4811 29.1825 21.3583 32.0052 21.3542V21.3333Z" fill="black"/>
</svg>
