<svg width="65" height="65" viewBox="0 0 65 65" fill="none" xmlns="http://www.w3.org/2000/svg">
<path id="Vector" fill-rule="evenodd" clip-rule="evenodd" d="M31.9988 0.797571C14.3293 0.797571 0 15.4857 0 33.6031C0 48.0987 9.1678 60.3917 21.8826 64.7316C23.483 65.0355 24.0712 64.0184 24.0712 63.1513C24.0712 62.3691 24.0393 59.785 24.0263 57.046C15.1231 59.0307 13.2463 53.1735 13.2463 53.1735C11.7911 49.381 9.6934 48.3724 9.6934 48.3724C6.7902 46.3344 9.9143 46.3792 9.9143 46.3792C13.1269 46.6093 14.8183 49.7576 14.8183 49.7576C17.6743 54.7732 22.3066 53.3213 24.1314 52.4845C24.4196 50.3643 25.2464 48.916 26.1629 48.0963C19.0549 47.2692 11.5832 44.4551 11.5832 31.8836C11.5832 28.3029 12.8352 25.375 14.8797 23.079C14.5467 22.2509 13.4506 18.9161 15.188 14.3981C15.188 14.3981 17.875 13.5154 23.9909 17.7608C26.5421 17.0355 29.2787 16.6698 31.9965 16.6577C34.7165 16.6698 37.4579 17.0343 40.0127 17.7608C46.1203 13.5179 48.8049 14.3981 48.8049 14.3981C50.5447 18.9173 49.4534 22.2545 49.1203 23.0791C51.1719 25.375 52.4133 28.3029 52.4133 31.8836C52.4133 44.4841 44.925 47.2546 37.8016 48.0672C38.9497 49.0843 39.9749 51.0811 39.9749 54.1398C39.9749 58.5269 39.9383 62.0627 39.9383 63.1416C39.9383 64.0147 40.5147 65.0355 42.1375 64.7157C54.8451 60.3735 64.0012 48.0792 64.0012 33.5921C64.0012 15.4771 49.6743 0.786499 32.0012 0.786499L31.9989 0.797469L31.9988 0.797571Z" fill="black"/>
</svg>
