<svg width="79" height="64" viewBox="0 0 79 64" fill="none" xmlns="http://www.w3.org/2000/svg">
<path id="Vector" fill-rule="evenodd" clip-rule="evenodd" d="M78.7868 7.56633C75.8905 8.86184 72.7702 9.72255 69.512 10.1064C72.8503 8.10723 75.4034 4.93901 76.6218 1.16748C73.5016 3.0125 70.034 4.36623 66.3598 5.09018C63.4054 1.95113 59.2093 0 54.5609 0C45.6352 0 38.409 7.23039 38.409 16.1505C38.409 17.4095 38.5486 18.641 38.822 19.8289C25.3918 19.1484 13.4855 12.719 5.51488 2.93692C4.08217 5.40486 3.32774 8.20785 3.32813 11.0615C3.32813 16.6622 6.17198 21.6158 10.5106 24.5049C7.86301 24.4263 5.37245 23.6877 3.18558 22.4911V22.6932C3.18558 30.5257 8.75277 37.0612 16.1505 38.5384C14.7954 38.9062 13.3647 39.1098 11.8905 39.1098C10.8466 39.1098 9.84036 39.0022 8.84005 38.8205C10.906 45.2353 16.8702 49.9112 23.9336 50.0479C18.3954 54.3865 11.4398 56.9701 3.85721 56.9701C2.54866 56.9701 1.27359 56.8901 0 56.7375C7.16798 61.3364 15.659 64 24.7812 64C54.5 64 70.7654 39.3715 70.7654 18.0173C70.7654 17.3077 70.7494 16.6201 70.7204 15.9251C73.8769 13.667 76.6132 10.8173 78.7796 7.57347L78.7869 7.56621L78.7868 7.56633Z" fill="black"/>
</svg>
