<svg width="50" height="26" viewBox="0 0 50 26" fill="none" xmlns="http://www.w3.org/2000/svg">
<path id="Vector" d="M14.5611 18.6122C14.5933 19.5679 14.4298 20.5201 14.0804 21.4102C13.7311 22.3003 13.2034 23.1096 12.5298 23.7882C11.8298 24.4666 10.9988 24.9949 10.0875 25.3408C9.17619 25.6867 8.20389 25.843 7.2301 25.8H0.185547V0.642743H7.3473C8.29586 0.612922 9.24048 0.777777 10.1229 1.12713C11.0053 1.47649 11.8067 2.00294 12.4778 2.67401C13.1488 3.34508 13.6753 4.14653 14.0247 5.02892C14.374 5.91131 14.5389 6.85593 14.509 7.80449V18.6122H14.5611ZM10.0688 18.6122V7.83053C10.0964 7.44648 10.0281 7.06159 9.87014 6.71043C9.71218 6.35928 9.46946 6.05287 9.16378 5.81873C8.65616 5.40831 8.02602 5.17917 7.37334 5.16767H4.67792V21.3076H7.37334C8.02529 21.2922 8.65421 21.0635 9.16378 20.6566C9.46557 20.4131 9.70337 20.0996 9.85654 19.7433C10.0097 19.387 10.0736 18.9988 10.0427 18.6122H10.0688ZM29.0995 25.774H19.6655C19.2559 25.7792 18.8494 25.7025 18.4699 25.5484C18.0904 25.3942 17.7455 25.1658 17.4556 24.8764C17.1656 24.5871 16.9364 24.2427 16.7815 23.8635C16.6266 23.4843 16.549 23.078 16.5534 22.6684V3.7874C16.5436 3.37176 16.6182 2.95845 16.7728 2.57249C16.9274 2.18653 17.1586 1.83595 17.4526 1.54196C17.7466 1.24798 18.0972 1.0167 18.4831 0.862139C18.8691 0.707576 19.2824 0.632938 19.6981 0.642743H29.0995V5.13511H21.0067V10.9947H25.9483V15.4871H21.0067V21.3467H29.093V25.8391L29.0995 25.774ZM40.4932 25.774C38.9892 25.774 37.7977 24.7258 36.8928 22.6293L31.0332 0.616699H35.9813L40.4736 17.9026L44.966 0.616699H49.9011L44.0806 22.6684C43.1864 24.7648 41.9906 25.813 40.4932 25.813V25.774Z" fill="white"/>
</svg>
